<?xml version="1.0" encoding="UTF-8"?>
<svg xmlns="http://www.w3.org/2000/svg" viewBox="0 0 32 32">
  <style>
    .light { display: inline; }
    .dark { display: none; }
    @media (prefers-color-scheme: dark) {
      .light { display: none; }
      .dark { display: inline; }
    }
  </style>
  <g class="light">
    <path d="M20.561,0C9.224,0,0,9.224,0,20.561c0,2.711,2.205,4.917,4.916,4.917h16.559c2.207,0,4.003-1.796,4.003-4.003V4.917c0-2.711-2.206-4.917-4.917-4.917ZM22.273,21.474c0,.44-.358.799-.799.799H4.916c-.944,0-1.711-.768-1.711-1.712C3.204,10.99,10.99,3.204,20.561,3.204c.944,0,1.712.768,1.712,1.712v16.558Z" style="fill:#071b30;"/>
    <path d="M27.084,6.524C15.747,6.524,6.523,15.748,6.523,27.084c0,2.71,2.206,4.916,4.917,4.916h16.558c2.207,0,4.002-1.795,4.002-4.002V11.439c0-2.71-2.205-4.915-4.916-4.915ZM27.084,9.728c.944,0,1.711.768,1.711,1.711v16.559c0,.44-.358.799-.798.799H11.439c-.944,0-1.712-.768-1.712-1.712,0-9.571,7.786-17.357,17.357-17.357Z" style="fill:#071b30;"/>
  </g>
  <g class="dark">
    <path d="M20.262,0C9.09,0,0,9.09,0,20.262c0,2.566,2.087,4.653,4.653,4.653h16.521c2.063,0,3.742-1.679,3.742-3.742V4.653c0-2.566-2.088-4.653-4.653-4.653ZM22.223,4.653v16.521c0,.579-.47,1.049-1.049,1.049H4.653c-1.08,0-1.96-.879-1.96-1.96C2.693,10.574,10.575,2.693,20.262,2.693c1.081,0,1.96.879,1.96,1.96Z" style="fill:#fff;"/>
    <path d="M27.347,7.086c-11.173,0-20.263,9.09-20.263,20.262,0,2.566,2.088,4.652,4.653,4.652h16.521c2.063,0,3.741-1.679,3.741-3.741V11.738c0-2.565-2.087-4.652-4.653-4.652ZM29.307,28.259c0,.579-.47,1.049-1.048,1.049H11.738c-1.081,0-1.96-.879-1.96-1.96,0-9.688,7.882-17.57,17.57-17.57,1.08,0,1.96.879,1.96,1.96v16.521Z" style="fill:#fff;"/>
  </g>
</svg>


