<?xml version="1.0" encoding="UTF-8"?><svg id="Layer_1" xmlns="http://www.w3.org/2000/svg" viewBox="0 0 32 32"><path d="M20.262,0C9.09,0,0,9.09,0,20.262c0,2.566,2.087,4.653,4.653,4.653h16.521c2.063,0,3.742-1.679,3.742-3.742V4.653c0-2.566-2.088-4.653-4.653-4.653ZM22.223,4.653v16.521c0,.579-.47,1.049-1.049,1.049H4.653c-1.08,0-1.96-.879-1.96-1.96C2.693,10.574,10.575,2.693,20.262,2.693c1.081,0,1.96.879,1.96,1.96Z" style="fill:#fff;"/><path d="M27.347,7.086c-11.173,0-20.263,9.09-20.263,20.262,0,2.566,2.088,4.652,4.653,4.652h16.521c2.063,0,3.741-1.679,3.741-3.741V11.738c0-2.565-2.087-4.652-4.653-4.652ZM29.307,28.259c0,.579-.47,1.049-1.048,1.049H11.738c-1.081,0-1.96-.879-1.96-1.96,0-9.688,7.882-17.57,17.57-17.57,1.08,0,1.96.879,1.96,1.96v16.521Z" style="fill:#fff;"/></svg>