<?xml version="1.0" encoding="UTF-8"?><svg id="Layer_1" xmlns="http://www.w3.org/2000/svg" viewBox="0 0 32 32"><path d="M20.561,0C9.224,0,0,9.224,0,20.561c0,2.711,2.205,4.917,4.916,4.917h16.559c2.207,0,4.003-1.796,4.003-4.003V4.917c0-2.711-2.206-4.917-4.917-4.917ZM22.273,21.474c0,.44-.358.799-.799.799H4.916c-.944,0-1.711-.768-1.711-1.712C3.204,10.99,10.99,3.204,20.561,3.204c.944,0,1.712.768,1.712,1.712v16.558Z" style="fill:#071b30;"/><path d="M27.084,6.524C15.747,6.524,6.523,15.748,6.523,27.084c0,2.71,2.206,4.916,4.917,4.916h16.558c2.207,0,4.002-1.795,4.002-4.002V11.439c0-2.71-2.205-4.915-4.916-4.915ZM27.084,9.728c.944,0,1.711.768,1.711,1.711v16.559c0,.44-.358.799-.798.799H11.439c-.944,0-1.712-.768-1.712-1.712,0-9.571,7.786-17.357,17.357-17.357Z" style="fill:#071b30;"/></svg>