<svg width="676" height="93" viewBox="0 0 676 93" fill="none" xmlns="http://www.w3.org/2000/svg">
<path d="M74.1496 27.6012C48.1381 30.5873 27.4837 51.9419 24.5988 78.8905C24.4997 79.6955 24.5685 80.5128 24.8004 81.2887C25.0324 82.0646 25.4223 82.7817 25.9447 83.3928C26.467 84.004 27.11 84.4954 27.8314 84.8349C28.5527 85.1743 29.3362 85.3542 30.1304 85.3625H74.8517C75.5888 85.3597 76.3181 85.208 76.9976 84.9162C77.6772 84.6244 78.2935 84.1981 78.8112 83.6621C79.3288 83.126 79.7376 82.4907 80.014 81.7926C80.2904 81.0946 80.4289 80.3476 80.4216 79.5947V33.2952C80.4203 32.4858 80.2516 31.6859 79.9264 30.9478C79.6012 30.2097 79.1269 29.5502 78.5346 29.0126C77.9424 28.4749 77.2456 28.0712 76.4898 27.828C75.7341 27.5847 74.9366 27.5075 74.1496 27.6012Z" stroke="white" stroke-width="4" stroke-miterlimit="10"/>
<path d="M64.5841 17.878C38.5726 20.864 17.9183 42.2187 15.0333 69.1673C14.9343 69.9723 15.003 70.7895 15.235 71.5655C15.4669 72.3414 15.8569 73.0585 16.3792 73.6696C16.9016 74.2808 17.5446 74.7722 18.2659 75.1116C18.9873 75.4511 19.7708 75.6309 20.565 75.6393H65.2862C66.0205 75.6347 66.7467 75.4825 67.4233 75.1913C68.1 74.9 68.7138 74.4755 69.2299 73.9419C69.7459 73.4083 70.154 72.7762 70.4309 72.0815C70.7077 71.3868 70.8479 70.6432 70.8434 69.8932V23.5893C70.8443 22.7797 70.6776 21.9791 70.3543 21.2399C70.0309 20.5008 69.5581 19.8398 68.967 19.3005C68.376 18.7611 67.6799 18.3556 66.9245 18.1104C66.1692 17.8652 65.3716 17.786 64.5841 17.878Z" stroke="white" stroke-width="4" stroke-miterlimit="10"/>
<path d="M53.9974 6.92899C27.9859 9.91073 7.33161 31.2784 4.44664 58.1922C4.34766 58.9974 4.41638 59.8149 4.6483 60.5911C4.88023 61.3672 5.27011 62.0845 5.79239 62.696C6.31468 63.3075 6.95758 63.7993 7.67896 64.1393C8.40033 64.4792 9.1839 64.6596 9.97829 64.6686H54.6995C56.1791 64.6583 57.5944 64.0497 58.6359 62.9761C59.6773 61.9025 60.2601 60.4513 60.2567 58.9398V12.6404C60.2583 11.8305 60.0921 11.0296 59.7689 10.2901C59.4458 9.55059 58.973 8.88936 58.3818 8.34987C57.7905 7.81039 57.0942 7.40486 56.3385 7.15996C55.5829 6.91507 54.785 6.83635 53.9974 6.92899Z" stroke="white" stroke-width="4" stroke-miterlimit="10"/>
<path d="M134.215 92.3401C121.492 92.3401 109.219 87.7435 101 81.735L111.584 62.7902C117.326 67.157 127.347 71.5239 134.666 71.5239C142.434 71.5239 144.912 70.0267 144.912 65.9094C144.912 62.6655 142.097 60.6561 131.513 57.9243C112.485 53.0585 103.364 47.3192 103.364 29.8519C103.364 13.3828 115.412 2.27206 134.44 2.27206C147.839 2.27206 157.522 5.89028 165.848 12.3781L155.27 31.3163C148.289 26.063 141.309 23.0817 133.314 23.0817C126.796 23.0817 125.208 25.3275 125.208 28.4467C125.208 31.6906 128.022 33.1878 138.156 35.8079C157.972 41.0612 166.755 47.7854 166.755 64.1298C166.755 84.0924 153.131 92.3401 134.215 92.3401Z" fill="white"/>
<path d="M212.693 90.9611V53.7742C212.693 45.2901 210.103 43.0443 205.937 43.0443C201.659 43.0443 199.069 45.2901 199.069 53.551V90.9808H178.802V8.98316L199.069 0V29.8191C202.779 26.6737 206.927 24.0799 213.931 24.0799C226.88 24.0799 233.072 33.6869 233.072 50.9046V90.9611H212.693Z" fill="white"/>
<path d="M276.759 90.9611V86.5943C272.931 89.8382 267.751 92.327 262.347 92.327C250.862 92.327 243.206 84.447 243.206 69.7443C243.206 55.6457 251.988 48.4093 264.486 48.4093C268.711 48.2917 272.906 49.2298 276.759 51.1541V47.9102C276.759 42.171 273.944 40.1747 268.427 40.1747C262.347 40.1747 257.76 41.4224 251.988 44.9158L246.696 30.0687C253.902 26.2009 261.896 24.0799 272.142 24.0799C288.694 24.0799 295.9 33.1878 295.9 48.4093V90.9611H276.759ZM276.759 64.2546C274.03 62.9243 271.069 62.2849 268.089 62.3831C263.941 62.3831 261.784 64.8784 261.784 69.37C261.784 73.4873 263.698 76.4817 268.089 76.4817C271.219 76.4637 274.26 75.3259 276.759 73.2378V64.2546Z" fill="white"/>
<path d="M339.473 90.9611V86.3645C335.521 89.8382 331.704 92.3401 325.512 92.3401C314.478 92.3401 305.92 82.7331 305.92 58.4037C305.92 34.9477 313.464 24.093 326.3 24.093C332.267 24.093 336.208 27.0874 339.473 29.8322V8.98316L359.853 0V90.9611H339.473ZM339.473 45.6513C337.447 43.7798 335.42 42.5321 332.267 42.5321C328.119 42.5321 325.849 45.4018 325.849 57.6354C325.849 70.7687 328.101 73.855 332.368 73.855C335.296 73.855 337.435 72.6073 339.479 70.7359L339.473 45.6513Z" fill="white"/>
<path d="M423.356 64.6289H388.677C389.352 71.8522 393.181 75.1355 398.698 75.1355C403.877 75.1355 408.179 73.8878 414.01 70.5389L421.779 84.887C414.461 89.6346 406.917 92.3729 397.684 92.3729C379.906 92.3729 370.099 78.3991 370.099 58.3118C370.099 35.7291 381.583 24.1258 397.121 24.1258C413.335 24.1258 423.468 35.9458 423.468 60.308C423.496 61.7495 423.459 63.1916 423.356 64.6289ZM396.558 40.6738C391.942 40.6738 389.352 44.1672 388.677 50.6551H405.566C404.553 44.0425 402.526 40.6738 396.558 40.6738Z" fill="white"/>
<path d="M460.849 16.2196C457.809 16.2196 456.796 17.3425 456.796 20.3369V25.4523H465.893V43.0443H457.134V90.9808H437.205V43.0443H430.929V25.4523H437.234V19.0892C437.234 5.61448 442.414 0.374298 453.898 0.374298C459.19 0.374298 463.919 1.49719 466.734 3.11915V17.5658C464.884 16.6489 462.876 16.1895 460.849 16.2196Z" fill="white"/>
<path d="M499.357 92.3401C483.03 92.3401 471.321 80.7368 471.321 58.1542C471.321 35.322 483.03 24.093 499.357 24.093C515.683 24.093 527.523 35.3088 527.523 58.141C527.523 80.7237 515.671 92.3401 499.357 92.3401ZM499.357 42.3089C494.065 42.3089 491.362 47.05 491.362 58.1542C491.362 69.0088 494.065 74.1242 499.357 74.1242C504.648 74.1242 507.374 68.9957 507.374 58.141C507.374 47.0303 504.648 42.2957 499.357 42.2957V42.3089Z" fill="white"/>
<path d="M575.47 50.156C572.88 47.0369 569.947 44.6663 565.988 44.6663C561.028 44.6663 557.994 47.293 557.994 55.2714V90.9611H537.745V25.4523H558.018V30.1934C561.502 26.4504 565.449 24.0799 570.628 24.0799C574.907 24.0799 577.834 25.2028 580.199 26.8247L575.47 50.156Z" fill="white"/>
<path d="M654.736 90.9611V53.7742C654.736 45.2901 652.365 43.0443 648.318 43.0443C644.17 43.0443 641.799 45.2901 641.799 53.551V90.9808H621.532V53.7742C621.532 45.2901 619.055 43.0443 615.014 43.0443C610.866 43.0443 608.495 45.2901 608.495 53.551V90.9808H588.228V25.4523H608.495V29.8191C612.397 26.0653 617.403 24.0238 622.57 24.0799C630.676 24.0799 635.18 26.9495 638.896 31.4411C643.174 27.5733 648.016 24.0799 656.122 24.0799C669.408 24.0799 675.151 33.6869 675.151 50.9046V90.9611H654.736Z" fill="white"/>
</svg>
