<svg width="878" height="126" viewBox="0 0 878 126" fill="none" xmlns="http://www.w3.org/2000/svg">
<path d="M106.642 36.5454C69.2321 40.7155 39.5271 70.5375 35.3779 108.172C35.2355 109.296 35.3343 110.437 35.6679 111.521C36.0015 112.604 36.5624 113.606 37.3136 114.459C38.0648 115.313 38.9895 115.999 40.027 116.473C41.0645 116.947 42.1913 117.198 43.3335 117.21H107.651C108.712 117.206 109.761 116.994 110.738 116.587C111.715 116.179 112.602 115.584 113.346 114.835C114.091 114.087 114.678 113.199 115.076 112.224C115.473 111.25 115.673 110.206 115.662 109.155V44.4972C115.66 43.3669 115.418 42.2497 114.95 41.219C114.482 40.1883 113.8 39.2673 112.948 38.5164C112.097 37.7656 111.094 37.2018 110.008 36.8621C108.921 36.5224 107.774 36.4145 106.642 36.5454Z" stroke="white" stroke-width="4" stroke-miterlimit="10"/>
<path d="M92.8846 22.9668C55.475 27.1369 25.77 56.9589 21.6208 94.593C21.4784 95.7172 21.5773 96.8585 21.9109 97.9421C22.2445 99.0257 22.8053 100.027 23.5565 100.881C24.3078 101.734 25.2325 102.42 26.2699 102.894C27.3074 103.368 28.4342 103.62 29.5764 103.631H93.8944C94.9504 103.625 95.9948 103.412 96.968 103.006C97.9411 102.599 98.824 102.006 99.5661 101.261C100.308 100.516 100.895 99.6328 101.293 98.6627C101.692 97.6926 101.893 96.6541 101.887 95.6067V30.9428C101.888 29.8122 101.648 28.6941 101.183 27.6618C100.718 26.6296 100.038 25.7066 99.1881 24.9534C98.338 24.2002 97.337 23.6338 96.2506 23.2914C95.1642 22.949 94.0172 22.8384 92.8846 22.9668Z" stroke="white" stroke-width="4" stroke-miterlimit="10"/>
<path d="M77.6589 7.67643C40.2492 11.8405 10.5442 41.6807 6.39509 79.2662C6.25274 80.3907 6.35158 81.5323 6.68512 82.6162C7.01867 83.7001 7.5794 84.7019 8.33055 85.5558C9.0817 86.4098 10.0063 87.0966 11.0438 87.5714C12.0813 88.0461 13.2082 88.298 14.3507 88.3105H78.6686C80.7966 88.2961 82.8321 87.4463 84.3299 85.947C85.8277 84.4477 86.6659 82.421 86.661 80.3103V15.6524C86.6633 14.5215 86.4242 13.4029 85.9594 12.3702C85.4947 11.3375 84.8148 10.4141 83.9644 9.66071C83.1141 8.9073 82.1126 8.34098 81.0258 7.99898C79.9391 7.65698 78.7916 7.54705 77.6589 7.67643Z" stroke="white" stroke-width="4" stroke-miterlimit="10"/>
<path d="M180.795 113.964C164.402 113.964 148.59 108.888 138 102.253L151.636 81.3342C159.035 86.1561 171.946 90.978 181.375 90.978C191.385 90.978 194.576 89.3248 194.576 84.7784C194.576 81.1964 190.949 78.9776 177.313 75.9612C152.797 70.5882 141.046 64.2508 141.046 44.9631C141.046 26.7776 156.569 14.5089 181.085 14.5089C198.348 14.5089 210.824 18.5042 221.551 25.6682L207.922 46.5801C198.928 40.7793 189.934 37.4873 179.634 37.4873C171.236 37.4873 169.189 39.9672 169.189 43.4114C169.189 46.9934 172.816 48.6466 185.872 51.5398C211.404 57.3406 222.719 64.7656 222.719 82.8134C222.719 104.856 205.166 113.964 180.795 113.964Z" fill="white"/>
<path d="M281.906 112.441V71.3785C281.906 62.0102 278.57 59.5304 273.202 59.5304C267.69 59.5304 264.353 62.0102 264.353 71.132V112.463H238.241V21.9194L264.353 12V44.9268C269.133 41.4536 274.477 38.5895 283.502 38.5895C300.185 38.5895 308.163 49.1977 308.163 68.2099V112.441H281.906Z" fill="white"/>
<path d="M364.449 112.441V107.619C359.517 111.201 352.844 113.949 345.881 113.949C331.084 113.949 321.219 105.248 321.219 89.013C321.219 73.4451 332.535 65.4545 348.637 65.4545C354.081 65.3246 359.485 66.3606 364.449 68.4854V64.9034C364.449 58.566 360.823 56.3617 353.714 56.3617C345.881 56.3617 339.971 57.7394 332.535 61.5969L325.717 45.2024C335.001 40.9316 345.301 38.5895 358.502 38.5895C379.827 38.5895 389.111 48.6466 389.111 65.4545V112.441H364.449ZM364.449 82.9512C360.934 81.4822 357.118 80.7763 353.279 80.8846C347.935 80.8846 345.156 83.64 345.156 88.5997C345.156 93.1461 347.622 96.4526 353.279 96.4526C357.312 96.4327 361.23 95.1764 364.449 92.8706V82.9512Z" fill="white"/>
<path d="M445.252 112.441V107.365C440.159 111.201 435.242 113.964 427.263 113.964C413.047 113.964 402.022 103.356 402.022 76.4905C402.022 50.5899 411.741 38.604 428.279 38.604C435.967 38.604 441.045 41.9104 445.252 44.9414V21.9194L471.509 12V112.441H445.252ZM445.252 62.409C442.64 60.3425 440.029 58.9648 435.967 58.9648C430.623 58.9648 427.698 62.1335 427.698 75.6421C427.698 90.1442 430.6 93.5521 436.097 93.5521C439.869 93.5521 442.625 92.1745 445.259 90.1079L445.252 62.409Z" fill="white"/>
<path d="M553.326 83.3645H508.646C509.516 91.3406 514.449 94.9661 521.557 94.9661C528.23 94.9661 533.773 93.5884 541.286 89.8904L551.296 105.734C541.866 110.976 532.147 114 520.251 114C497.346 114 484.71 98.5698 484.71 76.389C484.71 51.4528 499.507 38.6402 519.526 38.6402C540.416 38.6402 553.472 51.6921 553.472 78.5933C553.508 80.185 553.459 81.7774 553.326 83.3645ZM518.801 56.9128C512.853 56.9128 509.516 60.7703 508.646 67.9343H530.406C529.1 60.6325 526.489 56.9128 518.801 56.9128Z" fill="white"/>
<path d="M601.634 29.91C597.717 29.91 596.412 31.1499 596.412 34.4564V40.1049H608.131V59.5304H596.847V112.463H571.17V59.5304H563.084V40.1049H571.208V33.0787C571.208 18.1996 577.881 12.4133 592.678 12.4133C599.496 12.4133 605.589 13.6532 609.216 15.4442V31.3965C606.832 30.384 604.245 29.8768 601.634 29.91Z" fill="white"/>
<path d="M651.247 113.964C630.212 113.964 615.125 101.151 615.125 76.215C615.125 51.0032 630.212 38.604 651.247 38.604C672.281 38.604 687.536 50.9887 687.536 76.2005C687.536 101.137 672.266 113.964 651.247 113.964ZM651.247 58.7183C644.429 58.7183 640.947 63.9535 640.947 76.215C640.947 88.2009 644.429 93.8494 651.247 93.8494C658.065 93.8494 661.577 88.1864 661.577 76.2005C661.577 63.9318 658.065 58.7038 651.247 58.7038V58.7183Z" fill="white"/>
<path d="M749.312 67.3832C745.975 63.939 742.196 61.3214 737.096 61.3214C730.705 61.3214 726.796 64.2218 726.796 73.0318V112.441H700.707V40.1049H726.827V45.3402C731.316 41.2071 736.401 38.5895 743.074 38.5895C748.587 38.5895 752.358 39.8294 755.405 41.6204L749.312 67.3832Z" fill="white"/>
<path d="M851.439 112.441V71.3785C851.439 62.0102 848.385 59.5304 843.17 59.5304C837.826 59.5304 834.772 62.0102 834.772 71.132V112.463H808.66V71.3785C808.66 62.0102 805.468 59.5304 800.261 59.5304C794.916 59.5304 791.862 62.0102 791.862 71.132V112.463H765.75V40.1049H791.862V44.9269C796.889 40.7818 803.339 38.5275 809.996 38.5895C820.441 38.5895 826.243 41.7582 831.03 46.7179C836.543 42.447 842.781 38.5895 853.226 38.5895C870.344 38.5895 877.742 49.1977 877.742 68.2099V112.441H851.439Z" fill="white"/>
</svg>
