<?xml version="1.0" encoding="UTF-8"?><svg id="Layer_1" xmlns="http://www.w3.org/2000/svg" viewBox="0 0 1242 164"><path d="M103.175.989C46.61.989.587,47.012.587,103.582c0,12.991,10.565,23.561,23.556,23.561h83.647c10.447,0,18.946-8.499,18.946-18.946V24.55c0-12.991-10.57-23.561-23.561-23.561ZM113.101,24.55v83.647c0,2.929-2.382,5.311-5.311,5.311H24.144c-5.469,0-9.922-4.453-9.922-9.926C14.222,54.529,54.127,14.624,103.175,14.624c5.473,0,9.926,4.453,9.926,9.926Z" style="fill:#fff;"/><path d="M139.048,36.867c-56.57,0-102.592,46.022-102.592,102.588,0,12.991,10.57,23.556,23.561,23.556h83.647c10.443,0,18.941-8.499,18.941-18.941V60.418c0-12.987-10.565-23.552-23.556-23.552ZM148.97,144.069c0,2.929-2.382,5.311-5.307,5.311H60.017c-5.473,0-9.926-4.453-9.926-9.926,0-49.052,39.905-88.958,88.958-88.958,5.469,0,9.922,4.453,9.922,9.922v83.651Z" style="fill:#fff;"/><path d="M242.403,158.041c-6.82-3.058-12.168-7.318-16.044-12.757-3.876-5.44-5.881-11.727-6.001-18.861h18.197c.624,6.138,3.161,11.291,7.598,15.483,4.443,4.191,10.914,6.287,19.422,6.287,8.131,0,14.538-2.038,19.233-6.104,4.69-4.054,7.031-9.287,7.031-15.666,0-4.993-1.374-9.058-4.128-12.196-2.748-3.126-6.19-5.497-10.318-7.123-4.128-1.626-9.694-3.378-16.697-5.256-8.629-2.256-15.546-4.501-20.733-6.757-5.193-2.245-9.631-5.783-13.318-10.593-3.693-4.821-5.537-11.291-5.537-19.422,0-7.134,1.809-13.444,5.44-18.953,3.624-5.508,8.726-9.757,15.294-12.757,6.568-3,14.097-4.501,22.606-4.501,12.259,0,22.297,3.058,30.118,9.184,7.816,6.138,12.225,14.269,13.227,24.392h-18.764c-.63-4.993-3.252-9.402-7.879-13.227-4.632-3.813-10.759-5.714-18.392-5.714-7.129,0-12.946,1.844-17.447,5.531-4.506,3.687-6.757,8.852-6.757,15.483,0,4.752,1.346,8.623,4.037,11.624,2.685,3.012,6.001,5.291,9.94,6.848,3.945,1.569,9.476,3.355,16.605,5.348,8.635,2.382,15.574,4.73,20.831,7.043,5.251,2.313,9.757,5.875,13.507,10.696,3.75,4.81,5.629,11.349,5.629,19.605,0,6.379-1.689,12.379-5.067,18.014-3.378,5.623-8.383,10.192-15.008,13.696-6.631,3.504-14.446,5.245-23.453,5.245-8.629,0-16.359-1.523-23.173-4.592Z" style="fill:#fff;"/><path d="M406.29,61.605c6.253,3.31,11.166,8.28,14.727,14.91,3.567,6.631,5.348,14.704,5.348,24.209v60.603h-16.886v-58.164c0-10.261-2.565-18.105-7.69-23.545-5.13-5.451-12.139-8.165-21.014-8.165-9.007,0-16.17,2.817-21.484,8.44-5.319,5.634-7.976,13.822-7.976,24.576v56.858h-17.075V22.486h17.075v50.651c3.378-5.245,8.033-9.31,13.977-12.196,5.943-2.874,12.603-4.317,19.983-4.317,7.753,0,14.756,1.661,21.014,4.982Z" style="fill:#fff;"/><path d="M454.324,81.863c4.254-7.936,10.1-14.097,17.544-18.483,7.438-4.375,15.729-6.562,24.862-6.562,9.007,0,16.823,1.935,23.453,5.818,6.625,3.871,11.566,8.749,14.819,14.635v-18.77h17.264v102.826h-17.264v-19.136c-3.373,6.001-8.411,10.971-15.099,14.91-6.694,3.939-14.481,5.909-23.362,5.909-9.133,0-17.39-2.245-24.765-6.757-7.386-4.501-13.198-10.811-17.453-18.941-4.254-8.131-6.379-17.384-6.379-27.771,0-10.513,2.124-19.731,6.379-27.679ZM530.313,89.467c-3.126-5.76-7.346-10.169-12.666-13.227-5.314-3.069-11.16-4.604-17.538-4.604s-12.196,1.5-17.453,4.501c-5.251,3.012-9.448,7.386-12.568,13.135-3.132,5.76-4.695,12.517-4.695,20.27,0,7.879,1.563,14.727,4.695,20.545,3.121,5.818,7.318,10.261,12.568,13.318,5.256,3.069,11.068,4.592,17.453,4.592s12.225-1.523,17.538-4.592c5.319-3.058,9.539-7.501,12.666-13.318,3.126-5.818,4.69-12.597,4.69-20.361s-1.563-14.509-4.69-20.258Z" style="fill:#fff;"/><path d="M581.159,81.863c4.254-7.936,10.1-14.097,17.544-18.483,7.438-4.375,15.792-6.562,25.045-6.562,8.005,0,15.448,1.844,22.331,5.531,6.877,3.687,12.133,8.543,15.758,14.544V22.486h17.264v138.842h-17.264v-19.331c-3.373,6.127-8.377,11.166-15.008,15.105-6.631,3.939-14.383,5.909-23.264,5.909-9.133,0-17.424-2.245-24.862-6.757-7.444-4.501-13.29-10.811-17.544-18.941-4.254-8.131-6.379-17.384-6.379-27.771,0-10.513,2.124-19.731,6.379-27.679ZM657.147,89.467c-3.126-5.76-7.346-10.169-12.666-13.227-5.314-3.069-11.16-4.604-17.538-4.604s-12.196,1.5-17.453,4.501c-5.251,3.012-9.448,7.386-12.568,13.135-3.132,5.76-4.695,12.517-4.695,20.27,0,7.879,1.563,14.727,4.695,20.545,3.121,5.818,7.318,10.261,12.568,13.318,5.256,3.069,11.068,4.592,17.453,4.592s12.225-1.523,17.538-4.592c5.319-3.058,9.539-7.501,12.666-13.318,3.126-5.818,4.69-12.597,4.69-20.361s-1.563-14.509-4.69-20.258Z" style="fill:#fff;"/><path d="M801.245,116.299h-82.184c.63,10.123,4.1,18.037,10.415,23.728,6.316,5.692,13.977,8.543,22.984,8.543,7.381,0,13.542-1.718,18.483-5.165,4.941-3.436,8.411-8.039,10.41-13.788h18.392c-2.754,9.883-8.257,17.922-16.514,24.106-8.257,6.195-18.512,9.287-30.771,9.287-9.757,0-18.477-2.187-26.173-6.562-7.69-4.375-13.731-10.604-18.105-18.666-4.38-8.074-6.568-17.418-6.568-28.057s2.124-19.949,6.379-27.954c4.254-8.005,10.226-14.166,17.916-18.483,7.696-4.317,16.542-6.47,26.551-6.47,9.757,0,18.386,2.13,25.893,6.379,7.507,4.249,13.29,10.1,17.355,17.544,4.065,7.444,6.098,15.849,6.098,25.228,0,3.264-.189,6.699-.561,10.33ZM779.853,85.619c-2.88-4.695-6.785-8.257-11.727-10.696-4.941-2.439-10.41-3.665-16.416-3.665-8.629,0-15.981,2.76-22.045,8.257-6.069,5.508-9.539,13.135-10.415,22.892h64.92c0-6.505-1.437-12.105-4.317-16.788Z" style="fill:#fff;"/><path d="M866.16,72.576h-21.575v88.751h-17.075v-88.751h-13.318v-14.074h13.318v-7.318c0-11.498,2.972-19.915,8.915-25.228,5.938-5.314,15.477-7.982,28.612-7.982v14.269c-7.507,0-12.792,1.466-15.855,4.409-3.069,2.932-4.598,7.787-4.598,14.532v7.318h21.575v14.074Z" style="fill:#fff;"/><path d="M904.718,156.449c-7.822-4.375-13.954-10.604-18.392-18.666-4.438-8.074-6.659-17.418-6.659-28.057,0-10.501,2.279-19.789,6.848-27.862,4.564-8.062,10.788-14.257,18.666-18.575,7.885-4.317,16.702-6.47,26.459-6.47s18.575,2.153,26.454,6.47c7.879,4.317,14.103,10.478,18.666,18.483,4.569,8.005,6.848,17.327,6.848,27.954s-2.342,19.983-7.031,28.057c-4.695,8.062-11.04,14.292-19.044,18.666-8.011,4.375-16.886,6.562-26.643,6.562-9.637,0-18.357-2.187-26.173-6.562ZM948.149,143.691c5.377-2.874,9.728-7.192,13.044-12.952,3.31-5.749,4.97-12.757,4.97-21.014s-1.626-15.254-4.878-21.014c-3.252-5.749-7.507-10.032-12.757-12.849-5.256-2.817-10.948-4.226-17.075-4.226-6.258,0-11.979,1.409-17.166,4.226-5.193,2.817-9.356,7.1-12.477,12.849-3.132,5.76-4.695,12.757-4.695,21.014,0,8.383,1.535,15.448,4.598,21.209,3.063,5.749,7.163,10.032,12.294,12.849,5.125,2.817,10.753,4.214,16.886,4.214s11.881-1.431,17.258-4.306Z" style="fill:#fff;"/><path d="M1036.059,61.502c5.56-3.241,12.351-4.878,20.356-4.878v17.647h-4.501c-19.142,0-28.71,10.375-28.71,31.137v55.919h-17.075V58.501h17.075v16.697c3-5.875,7.283-10.433,12.855-13.696Z" style="fill:#fff;"/><path d="M1221.149,61.605c6.253,3.31,11.194,8.28,14.819,14.91,3.63,6.631,5.445,14.704,5.445,24.209v60.603h-16.886v-58.164c0-10.261-2.537-18.105-7.598-23.545-5.067-5.451-11.916-8.165-20.55-8.165-8.881,0-15.947,2.84-21.197,8.532-5.256,5.692-7.885,13.925-7.885,24.679v56.664h-16.886v-58.164c0-10.261-2.531-18.105-7.598-23.545-5.067-5.451-11.916-8.165-20.545-8.165-8.881,0-15.947,2.84-21.203,8.532-5.251,5.692-7.879,13.925-7.879,24.679v56.664h-17.075V58.501h17.075v14.83c3.378-5.382,7.907-9.505,13.605-12.391,5.686-2.874,11.973-4.317,18.855-4.317,8.629,0,16.256,1.947,22.892,5.818,6.625,3.882,11.566,9.574,14.819,17.075,2.88-7.249,7.627-12.883,14.263-16.88,6.625-4.008,14.006-6.012,22.136-6.012,8.005,0,15.134,1.661,21.392,4.982Z" style="fill:#fff;"/></svg>