<?xml version="1.0" encoding="UTF-8"?><svg id="Layer_1" xmlns="http://www.w3.org/2000/svg" viewBox="0 0 1242 164"><path d="M104.496,1.023C47.624,1.023,1.355,47.293,1.355,104.168c0,13.6,11.062,24.664,24.659,24.664h83.064c11.073,0,20.081-9.009,20.081-20.082V25.687c0-13.6-11.064-24.664-24.663-24.664ZM113.085,108.75c0,2.21-1.797,4.007-4.007,4.007H26.014c-4.734,0-8.585-3.853-8.585-8.59,0-48.011,39.058-87.071,87.067-87.071,4.736,0,8.589,3.853,8.589,8.59v83.063Z" style="fill:#071b30;"/><path d="M137.22,33.752c-56.874,0-103.145,46.269-103.145,103.141,0,13.597,11.064,24.659,24.664,24.659h83.063c11.07,0,20.077-9.006,20.077-20.077V58.408c0-13.595-11.062-24.655-24.659-24.655ZM137.22,49.823c4.734,0,8.585,3.851,8.585,8.585v83.068c0,2.209-1.795,4.007-4.003,4.007H58.739c-4.736,0-8.59-3.853-8.59-8.589,0-48.011,39.06-87.071,87.071-87.071Z" style="fill:#071b30;"/><path d="M284.89,92.368c-5.317-2.34-12.417-4.741-21.097-7.136-7.029-1.965-12.587-3.755-16.525-5.321-3.734-1.476-6.909-3.662-9.44-6.5-2.481-2.766-3.687-6.271-3.687-10.714,0-6.268,2.047-10.99,6.259-14.437,4.234-3.469,9.821-5.229,16.607-5.229,7.287,0,13.192,1.82,17.551,5.408,4.328,3.579,6.819,7.735,7.402,12.355l.157,1.247h21.662l-.155-1.565c-1.041-10.515-5.688-19.081-13.814-25.463-8.066-6.318-18.532-9.521-31.107-9.521-8.699,0-16.532,1.563-23.28,4.646-6.817,3.115-12.183,7.595-15.947,13.316-3.778,5.734-5.694,12.397-5.694,19.806,0,8.442,1.968,15.292,5.851,20.36,3.843,5.013,8.53,8.738,13.929,11.071,5.2,2.261,12.271,4.566,21.008,6.85,6.951,1.865,12.538,3.624,16.604,5.227,3.92,1.544,7.22,3.819,9.807,6.763,2.514,2.864,3.79,6.667,3.79,11.3,0,6.036-2.147,10.827-6.565,14.646-4.429,3.834-10.609,5.778-18.371,5.778-8.121,0-14.35-1.992-18.514-5.922-4.241-4.005-6.592-8.796-7.187-14.647l-.13-1.28h-21l.024,1.449c.125,7.415,2.24,14.055,6.287,19.732,4.029,5.653,9.64,10.12,16.678,13.275,6.974,3.143,14.996,4.735,23.842,4.735,9.244,0,17.388-1.826,24.205-5.429,6.85-3.624,12.104-8.426,15.618-14.274,3.509-5.852,5.289-12.182,5.289-18.812,0-8.575-2.002-15.49-5.949-20.552-3.887-4.996-8.633-8.752-14.107-11.164Z" style="fill:#071b30;"/><path d="M401.728,58.519c-6.46-3.428-13.78-5.166-21.759-5.166-7.58,0-14.536,1.505-20.679,4.476-4.764,2.313-8.778,5.397-11.98,9.198V19.091h-19.987v142.196h19.987v-58.489c0-10.365,2.562-18.335,7.616-23.687,5.032-5.325,11.938-8.025,20.526-8.025,8.468,0,15.215,2.606,20.053,7.747,4.864,5.164,7.33,12.786,7.33,22.654v59.8h19.797v-62.248c0-9.74-1.863-18.142-5.537-24.972-3.692-6.874-8.862-12.105-15.368-15.549Z" style="fill:#071b30;"/><path d="M528.816,70.677c-3.226-4.314-7.49-8.034-12.728-11.094-6.838-4.004-15-6.034-24.259-6.034-9.384,0-18.022,2.282-25.676,6.783-7.661,4.514-13.764,10.941-18.14,19.104h0c-4.36,8.146-6.57,17.719-6.57,28.453,0,10.608,2.208,20.208,6.564,28.533,4.372,8.354,10.44,14.937,18.035,19.564,7.582,4.639,16.195,6.99,25.598,6.99,9.13,0,17.262-2.062,24.17-6.128,5.332-3.14,9.69-6.961,13.006-11.397v15.836h20.176V55.238h-20.176v15.438ZM524.283,88.422c3.008,5.531,4.534,12.144,4.534,19.651s-1.526,14.159-4.537,19.761c-3,5.581-7.093,9.89-12.169,12.807-5.076,2.933-10.758,4.419-16.889,4.419s-11.78-1.485-16.799-4.416c-5.021-2.924-9.084-7.233-12.076-12.811-3.014-5.598-4.542-12.309-4.542-19.944,0-7.508,1.527-14.123,4.54-19.663,2.983-5.495,7.044-9.744,12.068-12.625,5.033-2.873,10.688-4.33,16.81-4.33s11.801,1.491,16.892,4.431c5.079,2.919,9.173,7.199,12.169,12.719h0Z" style="fill:#071b30;"/><path d="M656.112,70.556c-3.538-4.508-8.135-8.293-13.718-11.287-7.084-3.796-14.851-5.72-23.085-5.72-9.506,0-18.206,2.282-25.86,6.783-7.661,4.514-13.764,10.941-18.14,19.104h0c-4.36,8.145-6.57,17.718-6.57,28.453,0,10.609,2.208,20.209,6.564,28.533,4.371,8.353,10.472,14.937,18.131,19.567,7.645,4.637,16.288,6.987,25.691,6.987,9.13,0,17.23-2.062,24.077-6.13,5.277-3.136,9.603-6.993,12.91-11.507v15.947h20.176V19.091h-20.176v51.464ZM651.578,88.422c3.009,5.532,4.534,12.144,4.534,19.651s-1.527,14.158-4.538,19.761c-3,5.581-7.093,9.89-12.169,12.807-5.076,2.933-10.759,4.419-16.89,4.419s-11.779-1.485-16.799-4.416c-5.021-2.924-9.084-7.233-12.076-12.811-3.014-5.598-4.542-12.309-4.542-19.944,0-7.508,1.527-14.123,4.54-19.663,2.983-5.495,7.044-9.744,12.068-12.625,5.033-2.873,10.688-4.33,16.809-4.33s11.801,1.491,16.893,4.431c5.078,2.919,9.172,7.199,12.169,12.719h0Z" style="fill:#071b30;"/><path d="M775.179,60.135c-7.722-4.371-16.702-6.586-26.688-6.586-10.249,0-19.449,2.246-27.345,6.676-7.924,4.449-14.163,10.883-18.542,19.125-4.358,8.201-6.568,17.865-6.568,28.725s2.275,20.565,6.764,28.839c4.503,8.298,10.801,14.789,18.72,19.293,7.905,4.493,16.979,6.771,26.972,6.771,12.566,0,23.244-3.231,31.737-9.605,8.502-6.367,14.253-14.762,17.092-24.951l.504-1.808h-21.348l-.333.957c-1.898,5.462-5.234,9.881-9.917,13.137-4.687,3.27-10.653,4.928-17.735,4.928-8.63,0-16.07-2.762-22.113-8.208-5.704-5.141-9.02-12.312-9.867-21.331h82.229l.131-1.279c.378-3.692.57-7.229.57-10.513,0-9.606-2.118-18.354-6.294-26.003-4.194-7.68-10.239-13.791-17.967-18.165ZM716.743,99.304c1.061-8.646,4.362-15.536,9.827-20.495,5.795-5.254,12.917-7.918,21.167-7.918,5.768,0,11.099,1.188,15.845,3.531,4.689,2.314,8.453,5.747,11.186,10.202h0c2.524,4.107,3.9,9.04,4.097,14.68h-62.123Z" style="fill:#071b30;"/><path d="M842.374,49.319c0-6.349,1.404-10.909,4.177-13.558,2.782-2.672,7.803-4.028,14.925-4.028h1.425V14.563h-1.425c-13.476,0-23.457,2.817-29.666,8.374-6.253,5.59-9.423,14.466-9.423,26.382v5.919h-13.367v16.975h13.367v89.074h19.987v-89.074h21.653v-16.975h-21.653v-5.919Z" style="fill:#071b30;"/><path d="M955.557,60.218c-8.075-4.425-17.238-6.669-27.234-6.669s-19.159,2.244-27.24,6.669c-8.106,4.441-14.596,10.898-19.29,19.19-4.683,8.274-7.058,17.919-7.058,28.666,0,10.858,2.308,20.563,6.86,28.847,4.569,8.301,10.966,14.791,19.012,19.29,8.022,4.489,17.095,6.767,26.963,6.767,9.982,0,19.209-2.274,27.423-6.76,8.215-4.489,14.831-10.972,19.663-19.269,4.811-8.282,7.25-17.997,7.25-28.875s-2.375-20.555-7.06-28.761c-4.69-8.228-11.18-14.652-19.288-19.095ZM911.584,75.34c4.971-2.7,10.539-4.069,16.549-4.069,5.883,0,11.422,1.37,16.463,4.072,5.007,2.686,9.124,6.838,12.237,12.34,3.126,5.538,4.712,12.398,4.712,20.391s-1.615,14.849-4.798,20.379c-3.175,5.517-7.39,9.706-12.528,12.453-5.154,2.757-10.755,4.154-16.649,4.154s-11.368-1.364-16.261-4.054c-4.882-2.682-8.841-6.825-11.766-12.316-2.952-5.549-4.448-12.485-4.448-20.616,0-8.004,1.527-14.871,4.54-20.411,2.982-5.494,7.002-9.64,11.95-12.323Z" style="fill:#071b30;"/><path d="M1032.402,58.443h-.002c-4.308,2.525-7.91,5.83-10.756,9.86v-13.065h-19.986v106.049h19.986v-57.547c0-20.069,8.959-29.826,27.389-29.826h5.942v-20.561h-1.425c-8.238,0-15.353,1.712-21.147,5.09Z" style="fill:#071b30;"/><path d="M1235.006,74.059c-3.756-6.871-8.956-12.099-15.455-15.54-6.46-3.428-13.908-5.166-22.138-5.166-8.388,0-16.111,2.099-22.953,6.238-5.988,3.606-10.561,8.562-13.625,14.758-3.348-6.408-8.083-11.433-14.109-14.964-6.863-4.003-14.834-6.033-23.694-6.033-7.095,0-13.678,1.509-19.568,4.487-4.557,2.308-8.438,5.419-11.585,9.277v-11.879h-19.986v106.049h19.986v-58.294c0-10.379,2.534-18.387,7.53-23.802,4.966-5.378,11.774-8.105,20.233-8.105,8.215,0,14.801,2.604,19.577,7.741,4.806,5.16,7.244,12.784,7.244,22.66v59.8h19.796v-58.294c0-10.38,2.536-18.389,7.536-23.802,4.96-5.377,11.766-8.104,20.227-8.104,8.334,0,14.739,2.532,19.582,7.741,4.807,5.166,7.245,12.79,7.245,22.66v59.8h19.796v-62.248c0-9.74-1.897-18.146-5.639-24.981Z" style="fill:#071b30;"/></svg>