<svg width="878" height="131" viewBox="0 0 878 131" fill="none" xmlns="http://www.w3.org/2000/svg">
<path d="M109.539 38.188C71.1131 42.5497 40.601 73.7419 36.3391 113.105C36.1928 114.281 36.2943 115.475 36.637 116.608C36.9797 117.741 37.5557 118.789 38.3274 119.681C39.099 120.574 40.0489 121.292 41.1145 121.788C42.1802 122.284 43.3376 122.546 44.5109 122.559H110.576C111.665 122.554 112.743 122.333 113.747 121.907C114.75 121.48 115.661 120.858 116.426 120.075C117.19 119.292 117.794 118.364 118.203 117.344C118.611 116.324 118.815 115.233 118.805 114.134V46.5051C118.803 45.3229 118.553 44.1544 118.073 43.0763C117.593 41.9982 116.892 41.0349 116.017 40.2496C115.142 39.4642 114.113 38.8746 112.996 38.5193C111.88 38.164 110.702 38.0511 109.539 38.188Z" stroke="#113458" stroke-width="5" stroke-miterlimit="10"/>
<path d="M95.4083 23.9856C56.9822 28.3472 26.4701 59.5394 22.2082 98.9025C22.062 100.078 22.1635 101.272 22.5061 102.406C22.8488 103.539 23.4249 104.586 24.1965 105.479C24.9682 106.372 25.918 107.089 26.9837 107.585C28.0493 108.081 29.2068 108.344 30.38 108.356H96.4455C97.5302 108.349 98.6029 108.127 99.6025 107.702C100.602 107.276 101.509 106.656 102.271 105.877C103.034 105.097 103.636 104.174 104.045 103.159C104.454 102.144 104.662 101.058 104.655 99.9628V66.1454V32.328C104.656 31.1454 104.41 29.9759 103.932 28.8963C103.455 27.8166 102.756 26.8512 101.883 26.0634C101.01 25.2756 99.9816 24.6832 98.8657 24.3251C97.7498 23.967 96.5716 23.8513 95.4083 23.9856Z" stroke="#113458" stroke-width="5" stroke-miterlimit="10"/>
<path d="M80.155 9.43161C41.8863 13.7499 11.4992 44.6954 7.25482 83.6732C7.1092 84.8393 7.2103 86.0232 7.55151 87.1473C7.89272 88.2714 8.46632 89.3102 9.23472 90.1958C10.0031 91.0814 10.949 91.7937 12.0103 92.286C13.0716 92.7783 14.2244 93.0396 15.3931 93.0526H81.1879C83.3647 93.0376 85.447 92.1563 86.9792 90.6014C88.5114 89.0466 89.3688 86.9448 89.3638 84.7559V17.7031C89.3661 16.5303 89.1215 15.3702 88.6461 14.2993C88.1707 13.2283 87.4752 12.2707 86.6053 11.4894C85.7355 10.7081 84.711 10.1208 83.5992 9.76611C82.4875 9.41144 81.3137 9.29744 80.155 9.43161Z" stroke="#113458" stroke-width="5" stroke-miterlimit="10"/>
<path d="M180.795 118.964C164.402 118.964 148.59 113.888 138 107.253L151.636 86.3342C159.035 91.1561 171.946 95.978 181.375 95.978C191.385 95.978 194.576 94.3248 194.576 89.7784C194.576 86.1964 190.949 83.9776 177.313 80.9612C152.797 75.5882 141.046 69.2508 141.046 49.9631C141.046 31.7776 156.569 19.5089 181.085 19.5089C198.348 19.5089 210.824 23.5042 221.551 30.6682L207.922 51.5801C198.928 45.7793 189.934 42.4873 179.634 42.4873C171.236 42.4873 169.189 44.9672 169.189 48.4114C169.189 51.9934 172.816 53.6466 185.872 56.5398C211.404 62.3406 222.719 69.7656 222.719 87.8134C222.719 109.856 205.166 118.964 180.795 118.964Z" fill="#113458"/>
<path d="M281.906 117.441V76.3785C281.906 67.0102 278.57 64.5304 273.202 64.5304C267.69 64.5304 264.353 67.0102 264.353 76.132V117.463H238.241V26.9194L264.353 17V49.9268C269.133 46.4536 274.477 43.5895 283.502 43.5895C300.185 43.5895 308.163 54.1977 308.163 73.2099V117.441H281.906Z" fill="#113458"/>
<path d="M364.449 117.441V112.619C359.517 116.201 352.844 118.949 345.881 118.949C331.084 118.949 321.219 110.248 321.219 94.013C321.219 78.4451 332.535 70.4545 348.637 70.4545C354.081 70.3246 359.485 71.3606 364.449 73.4854V69.9034C364.449 63.566 360.823 61.3617 353.714 61.3617C345.881 61.3617 339.971 62.7394 332.535 66.5969L325.717 50.2024C335.001 45.9316 345.301 43.5895 358.502 43.5895C379.827 43.5895 389.111 53.6466 389.111 70.4545V117.441H364.449ZM364.449 87.9512C360.934 86.4822 357.118 85.7763 353.279 85.8846C347.935 85.8846 345.156 88.64 345.156 93.5997C345.156 98.1461 347.622 101.453 353.279 101.453C357.312 101.433 361.23 100.176 364.449 97.8706V87.9512Z" fill="#113458"/>
<path d="M445.252 117.441V112.365C440.159 116.201 435.242 118.964 427.263 118.964C413.047 118.964 402.022 108.356 402.022 81.4905C402.022 55.5899 411.741 43.604 428.279 43.604C435.967 43.604 441.045 46.9104 445.252 49.9414V26.9194L471.509 17V117.441H445.252ZM445.252 67.409C442.64 65.3425 440.029 63.9648 435.967 63.9648C430.623 63.9648 427.698 67.1335 427.698 80.6421C427.698 95.1442 430.6 98.5521 436.097 98.5521C439.869 98.5521 442.625 97.1745 445.259 95.1079L445.252 67.409Z" fill="#113458"/>
<path d="M553.326 88.3645H508.646C509.516 96.3406 514.449 99.9661 521.557 99.9661C528.23 99.9661 533.773 98.5884 541.286 94.8904L551.296 110.734C541.866 115.976 532.147 119 520.251 119C497.346 119 484.71 103.57 484.71 81.389C484.71 56.4528 499.507 43.6402 519.526 43.6402C540.416 43.6402 553.472 56.6921 553.472 83.5933C553.508 85.185 553.459 86.7774 553.326 88.3645ZM518.801 61.9128C512.853 61.9128 509.516 65.7703 508.646 72.9343H530.406C529.1 65.6325 526.489 61.9128 518.801 61.9128Z" fill="#113458"/>
<path d="M601.634 34.91C597.717 34.91 596.412 36.1499 596.412 39.4564V45.1049H608.131V64.5304H596.847V117.463H571.17V64.5304H563.084V45.1049H571.208V38.0787C571.208 23.1996 577.881 17.4133 592.678 17.4133C599.496 17.4133 605.589 18.6532 609.216 20.4442V36.3965C606.832 35.384 604.245 34.8768 601.634 34.91Z" fill="#113458"/>
<path d="M651.247 118.964C630.212 118.964 615.125 106.151 615.125 81.215C615.125 56.0032 630.212 43.604 651.247 43.604C672.281 43.604 687.536 55.9887 687.536 81.2005C687.536 106.137 672.266 118.964 651.247 118.964ZM651.247 63.7183C644.429 63.7183 640.947 68.9535 640.947 81.215C640.947 93.2009 644.429 98.8494 651.247 98.8494C658.065 98.8494 661.577 93.1864 661.577 81.2005C661.577 68.9318 658.065 63.7038 651.247 63.7038V63.7183Z" fill="#113458"/>
<path d="M749.312 72.3832C745.975 68.939 742.196 66.3214 737.096 66.3214C730.705 66.3214 726.796 69.2218 726.796 78.0318V117.441H700.707V45.1049H726.827V50.3402C731.316 46.2071 736.401 43.5895 743.074 43.5895C748.587 43.5895 752.358 44.8294 755.405 46.6204L749.312 72.3832Z" fill="#113458"/>
<path d="M851.439 117.441V76.3785C851.439 67.0102 848.385 64.5304 843.17 64.5304C837.826 64.5304 834.772 67.0102 834.772 76.132V117.463H808.66V76.3785C808.66 67.0102 805.468 64.5304 800.261 64.5304C794.916 64.5304 791.862 67.0102 791.862 76.132V117.463H765.75V45.1049H791.862V49.9269C796.889 45.7818 803.339 43.5275 809.996 43.5895C820.441 43.5895 826.243 46.7582 831.03 51.7179C836.543 47.447 842.781 43.5895 853.226 43.5895C870.344 43.5895 877.742 54.1977 877.742 73.2099V117.441H851.439Z" fill="#113458"/>
</svg>
